Coordinates
version=1
nRows=19
nColumns=24
inDegrees=yes

Units are S.I. units (second, meters, Newtons, ...)
Angles are in degrees.

endheader
time	pelvis_tilt	pelvis_list	pelvis_rotation	pelvis_tx	pelvis_ty	pelvis_tz	hip_flexion_r	hip_adduction_r	hip_rotation_r	knee_angle_r	ankle_angle_r	subtalar_angle_r	mtp_angle_r	hip_flexion_l	hip_adduction_l	hip_rotation_l	knee_angle_l	ankle_angle_l	subtalar_angle_l	mtp_angle_l	lumbar_extension	lumbar_bending	lumbar_rotation
      3.29500000	    -11.32132030	     -2.39061922	      7.73586996	     -1.76333040	     -0.04449673	      0.41585489	     36.20568284	     -2.02728061	     -9.06456342	     -6.45331589	     -4.75543334	     15.03443977	     19.87914164	     -4.99811889	      2.48328295	     18.23895378	    -15.49021372	      9.62109889	     -2.74822963	      0.33473161	      7.83808139	      0.27485680	     -5.11670582
      3.30000000	    -11.47159905	     -2.64980543	      7.70626507	     -1.75515484	     -0.04544213	      0.41605165	     36.40621932	     -1.69801751	     -8.94880389	     -7.10770706	     -4.98468576	     14.49079473	     19.79394962	     -4.94763847	      2.18666957	     17.98969628	    -16.17613512	      9.39197179	     -2.20424917	      0.73359224	      8.10352485	      0.58205635	     -5.15984173
      3.30500000	    -11.62405283	     -2.92160218	      7.64752614	     -1.74690751	     -0.04635410	      0.41630008	     36.60394526	     -1.33147058	     -8.73809349	     -7.80973589	     -5.36403529	     13.79968751	     19.64146449	     -4.87162324	      1.87579291	     17.69548962	    -16.90474642	      9.10948133	     -1.62370654	      1.16535395	      8.37700737	      0.90886359	     -5.17863514
      3.31000000	    -11.77813073	     -3.20662361	      7.56020415	     -1.73859704	     -0.04721527	      0.41661291	     36.79304442	     -0.92637143	     -8.43302972	     -8.52986425	     -5.91646869	     12.99909578	     19.45139401	     -4.76640762	      1.54727526	     17.34949421	    -17.67984912	      8.76238992	     -0.98661476	      1.64449699	      8.65657331	      1.25458748	     -5.17117873
      3.31500000	    -11.94016537	     -3.52174280	      7.44779359	     -1.73020635	     -0.04802572	      0.41696744	     36.97893168	     -0.47252446	     -8.04042525	     -9.24952640	     -6.64329278	     12.11793486	     19.25354024	     -4.62559174	      1.18200704	     16.95516416	    -18.49505494	      8.35866982	     -0.28756233	      2.18403775	      8.95593481	      1.64149573	     -5.13877647
      3.32000000	    -12.10661390	     -3.86038157	      7.30336772	     -1.72175495	     -0.04876647	      0.41742908	     37.16232279	      0.03369445	     -7.57561998	     -9.95510360	     -7.53344794	     11.16719622	     19.06450517	     -4.44749936	      0.78035504	     16.48958905	    -19.35556456	      7.88073674	      0.49427974	      2.80379929	      9.26462296	      2.05170520	     -5.08124602
      3.32500000	    -12.26538220	     -4.20700777	      7.12218410	     -1.71331976	     -0.04941907	      0.41797617	     37.33833194	      0.58129002	     -7.01068013	    -10.64291902	     -8.56716267	     10.13184950	     18.89988184	     -4.23523501	      0.35738361	     15.92797738	    -20.26949431	      7.32492572	      1.38734526	      3.57717148	      9.55440187	      2.48491637	     -5.00059437
      3.33000000	    -12.40243599	     -4.56930468	      6.91380440	     -1.70491890	     -0.04995839	      0.41866709	     37.49413415	      1.17914033	     -6.35383689	    -11.30969541	     -9.67826336	      9.01161220	     18.79280005	     -3.99544958	     -0.10560139	     15.27050917	    -21.23517981	      6.65110210	      2.35808522	      4.58781338	      9.80692248	      2.93005277	     -4.89656785
      3.33500000	    -12.50758073	     -4.98611806	      6.65023980	     -1.69638621	     -0.05028908	      0.41940226	     37.58688542	      1.87137557	     -5.63434065	    -11.89584801	    -10.88097289	      7.87388824	     18.83815930	     -3.79499997	     -0.64963583	     14.57706216	    -22.13176586	      5.65210322	      3.20711315	      6.14156239	     10.04361107	      3.45912092	     -4.70604131
      3.34000000	    -12.72738462	     -5.45642803	      6.44866407	     -1.68794780	     -0.05064897	      0.42008106	     37.82689984	      2.55558259	     -4.97945672	    -12.53197607	    -11.90610157	      6.84042347	     18.60118198	     -3.34216784	     -1.24931900	     13.87128940	    -23.27094426	      4.95589403	      4.54132916	      7.06247833	     10.39872723	      4.01452557	     -4.64310609
      3.34500000	    -12.84396256	     -5.85605522	      6.18431723	     -1.67956728	     -0.05076638	      0.42102625	     37.94048394	      3.27267401	     -4.09940193	    -13.14416131	    -12.83737162	      5.53098365	     18.31725278	     -2.97916890	     -1.82338666	     13.03280310	    -24.37933947	      3.90680042	      5.83240797	      8.52391178	     10.60605499	      4.50076589	     -4.51724611
      3.35000000	    -12.94507832	     -6.35663092	      5.89106359	     -1.67098204	     -0.05071118	      0.42187041	     38.01460026	      4.09923242	     -3.31341056	    -13.74078074	    -13.60628107	      4.29948391	     17.90977505	     -2.63051624	     -2.51842254	     12.20699296	    -25.40836425	      2.46196055	      6.84377069	     10.66521165	     10.83321935	      5.12280940	     -4.33925286
      3.35500000	    -13.09297986	     -6.78013991	      5.64545449	     -1.66262076	     -0.05067026	      0.42278038	     38.17402843	      4.83059300	     -2.56301321	    -14.43777144	    -14.07481814	      3.12722595	     17.39361830	     -2.10461686	     -3.15485194	     11.35282524	    -26.66034309	      1.24116824	      8.34260860	     12.22319854	     11.06462099	      5.63193410	     -4.22867846
      3.36000000	    -13.16731645	     -7.25651708	      5.35352415	     -1.65404579	     -0.05041557	      0.42364018	     38.21359202	      5.65473652	     -1.84118586	    -15.13074189	    -14.27526186	      2.09154329	     16.50556662	     -1.67102503	     -3.87094705	     10.47481297	    -27.79117298	     -0.47952132	      9.45601007	     14.56121238	     11.24241252	      6.23229949	     -4.06270771
      3.36500000	    -13.22734001	     -7.64864092	      5.09245331	     -1.64560220	     -0.05010982	      0.42452289	     38.24789846	      6.39086411	     -1.18273896	    -15.89917356	    -14.16488762	      1.20632797	     15.47267114	     -1.17670504	     -4.51786316	      9.62667041	    -29.00906398	     -2.24503906	     10.68891156	     16.76018295	     11.37248079	      6.72978627	     -3.92031644
      3.37000000	    -13.32049963	     -8.04082718	      4.85990586	     -1.63711030	     -0.04978790	      0.42538148	     38.28427188	      7.11869448	     -0.57609950	    -16.64147459	    -13.97318479	      0.20152510	     14.40820179	     -0.58022646	     -5.16824415	      8.84047626	    -30.30835580	     -4.06370670	     11.83593277	     18.59224346	     11.54736385	      7.21112272	     -3.83376384
      3.37500000	    -13.36400916	     -8.41073145	      4.63497996	     -1.62876774	     -0.04938409	      0.42617731	     38.26107429	      7.81588165	     -0.06263500	    -17.40000820	    -13.58936726	     -0.54850781	     13.17978083	      0.03335164	     -5.80339783	      8.08089956	    -31.64403388	     -6.04983714	     12.76270374	     20.58759779	     11.63519722	      7.68222230	     -3.71805980
      3.38000000	    -13.37817580	     -8.74727914	      4.41890494	     -1.62042247	     -0.04894165	      0.42695144	     38.18291521	      8.47220207	      0.33086121	    -18.15197584	    -13.00338730	     -1.12291668	     11.92458390	      0.65473392	     -6.40764490	      7.37101443	    -32.99388990	     -8.10097837	     13.48418980	     22.43368297	     11.68807782	      8.11635895	     -3.59224389
      3.38500000	    -13.37948511	     -9.08393456	      4.21973103	     -1.61217504	     -0.04848517	      0.42766482	     38.05534086	      9.10546430	      0.67302223	    -18.84369039	    -12.35258104	     -1.55545082	     10.73171478	      1.33089161	     -7.00825296	      6.71394546	    -34.40819898	    -10.11713634	     13.94179120	     24.01464886	     11.71253893	      8.55007370	     -3.49348922
